<?xml version="1.0" encoding="UTF-8"?>
<svg width="150px" height="100px" viewBox="0 0 284 197" version="1.1" xmlns="http://www.w3.org/2000/svg" xmlns:xlink="http://www.w3.org/1999/xlink">
    <!-- Generator: Sketch 52.2 (67145) - http://www.bohemiancoding.com/sketch -->
    <title>Group</title>
    <desc>Created with Sketch.</desc>
    <g id="Page-1" stroke="none" stroke-width="1" fill="none" fill-rule="evenodd">
        <g id="Group" transform="translate(142.079733, 98.434524) rotate(-180.000000) translate(-142.079733, -98.434524) translate(0.079733, -0.565476)">
            <g id="g20-copy" transform="translate(0.000000, 0.000000)" fill="#002F6E">
                <path d="M283.999993,103.999997 C283.999993,154.983996 220.658661,196.542662 142.515996,196.542662 C64.3773317,196.542662 1.03466664,154.983996 1.03466664,103.999997 C1.03466664,102.685331 1.01733331,99.0453309 1.01733331,98.5826642 C1.01733331,44.4973322 56.3826653,0.690666649 142.495996,0.690666649 C229.143994,0.690666649 283.999993,44.4853322 283.999993,98.5719975 L283.999993,103.999997 Z" id="path22"></path>
            </g>
            <g id="g24-copy" transform="translate(5.000000, 16.000000)" fill="#FFE900">
                <path d="M273.333327,87.9999978 C273.333327,39.935999 212.425328,0.971999976 137.291997,0.971999976 C62.1559984,0.971999976 1.25466664,39.935999 1.25466664,87.9999978 C1.25466664,136.06933 62.1559984,175.034662 137.291997,175.034662 C212.425328,175.034662 273.333327,136.06933 273.333327,87.9999978" id="path26"></path>
            </g>
            <g id="g28-copy" transform="translate(96.000000, 92.000000)" fill="#FFFFFF">
                <path d="M1.3333333,38.6666657 C1.25999997,38.5293324 -0.0959999976,37.1253324 0.782666647,35.9973324 C2.93199993,33.2546658 9.55999976,31.6826659 16.2653329,33.1853325 C20.2586662,34.0826658 25.3733327,38.1546657 30.3333326,42.0866656 C35.7053324,46.3559988 41.0373323,50.6293321 46.3959988,52.329332 C52.069332,54.1346653 55.7039986,53.361332 58.1053319,52.633332 C60.7413318,51.8479987 63.8373317,50.1133321 68.7799983,46.4053322 C78.087998,39.407999 115.522664,6.73733316 121.986664,1.08666664 C127.194663,3.44133325 150.338663,13.405333 181.797329,20.3399995 C179.066662,37.1106657 168.861329,52.4519987 153.391996,65.0159984 C131.83333,55.9599986 105.479997,51.2346654 79.7106647,63.8186651 C79.579998,63.8733317 65.6319984,70.4746649 51.8746654,70.1493316 C31.4319992,69.6759983 22.5773328,60.8266651 13.1999997,51.4586654 L1.3333333,38.6666657 Z" id="path30"></path>
            </g>
            <g id="g32-copy" transform="translate(7.000000, 45.000000)" fill="#FFFFFF">
                <path d="M209.333328,45.3333322 C208.895995,45.7239989 165.319996,83.8493312 155.451996,91.2693311 C149.738663,95.5533309 146.559996,96.6466643 143.223996,97.0706642 C141.487996,97.2959976 139.086663,96.9733309 137.410663,96.5146643 C132.818663,95.265331 126.814663,91.2506644 121.483997,87.0239978 C115.962664,82.6279979 110.761331,78.487998 105.930664,77.4066647 C99.7639975,76.0239981 92.229331,77.6559981 88.7919978,79.979998 C87.3959978,80.915998 86.4173312,81.9986646 85.9453312,83.0986646 C84.6773312,86.0439978 87.0213312,88.3973311 87.4039978,88.7919978 L99.4279975,101.797331 C100.822664,103.191997 102.231997,104.587997 103.673331,105.962664 C99.7919975,105.457331 96.2079976,104.466664 92.717331,103.494664 C88.3613311,102.269331 84.1706646,101.105331 79.931998,101.106664 C78.1613314,101.106664 68.6773316,102.661331 66.878665,103.150664 C55.9973319,106.129331 46.4466655,109.029331 32.1799992,115.687997 C15.089333,102.963997 3.65599991,87.0533312 0.355999991,69.5279983 C2.80933326,68.8773316 6.76933316,67.6999983 8.42933312,67.330665 C47.1119988,58.7293319 59.1626652,49.8679988 61.3466651,48.0213321 C63.7133317,50.6506654 67.1253317,52.3186654 70.9359982,52.3186654 C75.2186648,52.313332 79.0746647,50.1626654 81.4173313,46.8399988 C83.6346646,48.5879988 86.6893312,50.0839987 90.6386644,50.0826654 C92.4319977,50.0826654 94.2946643,49.7506654 96.1733309,49.1119988 C100.534664,47.6146655 102.786664,44.7093322 103.957331,42.0813323 C105.419997,42.7413323 107.221331,43.2279989 109.339997,43.2226656 C111.422664,43.2226656 113.58933,42.7479989 115.77333,41.8026656 C122.90533,38.7426657 124.01733,31.7359992 123.367997,26.4533327 C123.87733,26.514666 124.387997,26.5359993 124.906664,26.5359993 C133.362663,26.5319993 140.238663,19.6586662 140.238663,11.1973331 C140.238663,8.57999979 139.56933,6.11733318 138.406663,3.95866657 C140.70533,2.66399993 146.571996,-0.263999993 151.72133,0.38799999 C155.834663,0.910666644 157.395996,2.31333328 157.957329,3.10533326 C158.339996,3.64799991 158.745329,4.28266656 158.365329,4.73866655 L147.451996,16.8639996 C147.451996,16.8639996 145.654663,18.5639995 146.24933,19.2213329 C146.86533,19.8959995 147.971996,18.9293329 148.759996,18.2693329 C154.315996,13.6306663 161.097329,6.62799983 161.097329,6.62799983 C161.210663,6.5546665 161.662663,5.66933319 164.169329,5.21999987 C166.330663,4.83333321 170.149329,5.05599987 172.797329,7.22666649 C173.463996,7.77733314 174.131996,8.46666646 174.689329,9.1693331 C174.647996,9.13999977 174.609329,9.08933311 174.569329,9.07199977 C177.359996,12.645333 174.258662,16.2586663 174.258662,16.2586663 L161.514663,30.5679992 C161.514663,30.5679992 159.694663,32.2519992 160.311996,32.9306658 C160.867996,33.5186658 162.039996,32.6319992 162.837329,31.9679992 C166.874662,28.5933326 172.575996,22.8706661 178.035996,17.5213329 C179.099996,16.7373329 183.906662,13.7719997 190.261329,17.9479996 C194.123995,20.4746662 194.897328,23.5853327 194.787995,25.930666 C194.519995,29.0346659 192.095995,31.2493326 192.095995,31.2493326 L174.689329,48.7479988 C174.689329,48.7479988 172.851996,50.3199987 173.503996,51.1146654 C174.030662,51.781332 175.229329,50.8186654 176.009329,50.1626654 C181.555995,45.5239989 196.567995,31.7626659 196.567995,31.7626659 C196.777328,31.6106659 201.965328,27.918666 208.374661,31.9986659 C210.666661,33.4639992 212.130661,35.6733324 212.254661,38.2373324 C212.474661,42.6906656 209.333328,45.3333322 209.333328,45.3333322" id="path34"></path>
            </g>
            <g id="g36-copy" transform="translate(68.000000, 44.000000)" fill="#FFFFFF">
                <path d="M63.9999984,23.9999994 C61.3013318,24.0319994 58.3466652,22.4279994 57.9599986,22.6613328 C57.7493319,22.8039994 58.1266652,23.8866661 58.3799985,24.5106661 C58.6386652,25.134666 62.1933318,35.8293324 53.529332,39.5426657 C46.8986655,42.3919989 42.8493323,39.187999 41.4546656,37.7413324 C41.087999,37.3599991 40.9253323,37.3919991 40.883999,37.8759991 C40.7506656,39.799999 39.8893323,45.0106655 34.1639991,46.7533322 C25.9879994,49.2613321 20.7293328,43.5506656 19.3946662,41.491999 C18.7986662,46.1519988 14.8559996,49.7706654 10.0279997,49.7759988 C4.78399988,49.7813321 0.531999987,45.5319989 0.52533332,40.287999 C0.523999987,35.0453325 4.77333321,30.7946659 10.0199997,30.7946659 C12.5666664,30.7866659 14.8799996,31.8066659 16.5826663,33.4426658 C16.6359996,33.3959992 16.6573329,33.3053325 16.6293329,33.1239992 C16.2306663,30.7759992 15.4959996,22.2426661 24.4293327,18.7706662 C28.0133326,17.3813329 31.0599992,18.4133329 33.5853325,20.1853328 C34.3413325,20.7173328 34.4613325,20.4946662 34.3546658,19.7839995 C34.0306658,17.5879996 34.4399991,12.8919997 41.0266656,10.2226664 C46.0386655,8.1879998 49.0039988,10.2733331 50.9466654,12.0679997 C51.7919987,12.841333 52.0239987,12.713333 52.0666654,11.521333 C52.305332,5.16799987 57.5813319,0.127999997 63.9866651,0.123999997 C70.5853316,0.119999997 75.9319981,5.45599986 75.9386648,12.049333 C75.9439981,18.6493329 70.5973316,23.9266661 63.9999984,23.9999994" id="path38"></path>
            </g>
            <path d="M131.67253,44.8226654 C125.691197,44.8293321 120.829864,49.4719986 120.611197,55.3946651 C120.59253,55.9053318 120.541864,57.2546651 119.40053,57.2546651 C118.929864,57.2546651 118.523197,56.9733318 118.05253,56.5506651 C116.737864,55.3293318 115.061864,54.0919985 112.616531,54.0919985 C111.504531,54.0919985 110.303197,54.3479985 109.032531,54.8693318 C102.715197,57.4253317 102.629864,61.7653316 102.888531,63.5093316 C102.956531,63.9759982 102.979197,64.4573316 102.660531,64.8373316 L102.275197,65.1839982 L101.879197,65.1839982 C101.556531,65.1839982 101.228531,65.0519982 100.779197,64.7346649 C98.9498642,63.4546649 97.2005309,62.8306649 95.4178643,62.8306649 C94.4391976,62.8306649 93.4338643,63.0266649 92.4231977,63.4133316 C84.1098646,66.6519982 84.7671979,74.5013313 85.1725312,76.8639979 C85.2338645,77.3413312 85.1138645,77.7133312 84.8098645,77.9599979 L84.2218646,78.4439979 L83.6725312,77.9159979 C82.0525313,76.3533313 79.931198,75.5013313 77.7031981,75.5013313 C72.9418648,75.5053313 69.0658649,79.3773312 69.0685316,84.1359977 C69.0725316,88.9039976 72.9511982,92.7693309 77.7165314,92.7639975 C82.0191979,92.7639975 85.6845312,89.5266643 86.2351978,85.2279977 L86.5285312,82.9093311 L87.8018645,84.8693311 C87.9458645,85.101331 91.4338644,90.3773309 97.8511976,90.3706642 C99.0698642,90.3706642 100.331197,90.1746643 101.599197,89.7826643 C106.712531,88.221331 107.579197,83.5839978 107.713864,81.6533311 C107.804531,80.5253312 108.605864,80.4746645 108.761864,80.4746645 C109.203197,80.4746645 109.529864,80.7519978 109.759197,80.9973312 C110.724531,82.0039978 112.827197,83.6773311 116.117864,83.6773311 C117.62053,83.6746644 119.223197,83.3186644 120.877864,82.6053311 C129.005863,79.1186645 125.319197,68.7906648 125.275197,68.6813315 C124.575197,66.9693315 124.549864,66.2146649 125.205864,65.7773315 L125.527197,65.6279982 L125.76053,65.6279982 C126.12853,65.6279982 126.58453,65.7853315 127.33653,66.0399982 C128.443197,66.4226648 130.113863,66.9999982 131.673863,66.9959982 L131.677863,66.9959982 C137.797863,66.9266648 142.773863,61.9479983 142.769863,55.8986651 C142.761863,49.7866653 137.78453,44.8226654 131.67253,44.8226654 M217.783195,94.5959975 C204.363195,106.311997 173.343196,133.278663 164.943196,139.586663 C160.141863,143.194663 156.868529,145.10133 153.995196,145.958663 C152.701863,146.347996 150.917863,146.791996 148.617863,146.794663 C146.477863,146.794663 144.18453,146.407996 141.78853,145.64533 C136.36053,143.927996 130.951197,139.627996 125.719197,135.470663 L125.449864,135.25733 C120.575197,131.383997 115.537864,127.375997 111.727197,126.52533 C110.064531,126.150663 108.353864,125.955997 106.644531,125.955997 C102.377864,125.962663 98.5418642,127.191997 97.1031976,129.027997 C96.8658642,129.330663 97.0191976,129.822663 97.5738642,130.527997 L97.6458642,130.622663 L109.452531,143.346663 C118.703197,152.594663 127.437863,161.325329 147.543196,161.789329 C147.877863,161.797329 148.21653,161.802662 148.549863,161.802662 C161.063196,161.794662 173.575196,156.191996 174.977862,155.542663 C186.715195,149.821329 198.827195,146.911996 211.005861,146.90133 C223.695194,146.89733 236.787194,150.038663 250.555194,156.378663 C249.01786,157.673329 247.415194,158.929329 245.769861,160.165329 C233.676527,154.921329 222.153861,152.270663 211.040528,152.275996 C199.685862,152.285329 188.337862,155.011996 177.324529,160.385329 C176.744529,160.662662 162.928529,167.175996 148.55653,167.183996 C148.18053,167.183996 147.795196,167.175996 147.42053,167.171996 C130.531197,166.777329 121.01653,160.777329 114.62053,155.523996 C108.397864,155.374663 103.029864,153.871996 98.2538642,152.538663 C93.992531,151.354663 90.3111977,150.325329 86.7205312,150.329329 C85.2431979,150.329329 82.5805313,150.463996 82.3405313,150.471996 C78.2125314,150.598663 57.4178652,155.699996 40.8725323,161.961329 C39.183199,160.766662 37.5578657,159.531996 35.9751991,158.274663 C53.2578653,151.187996 74.2911981,145.707996 80.9285313,145.27733 C82.7738646,145.15733 84.7431979,144.947996 86.7125312,144.943996 C91.1045311,144.943996 95.4831976,146.17733 99.7285308,147.362663 C102.232531,148.067996 104.999197,148.831996 107.903197,149.389329 C107.128531,148.629329 106.355197,147.855996 105.580531,147.074663 L93.580531,134.098663 C92.6338644,133.146663 90.5885311,130.60133 91.9378644,127.467997 C92.4751977,126.203997 93.5658643,124.995997 95.0898643,123.966663 C97.9511976,122.042663 103.069864,120.74133 107.824531,120.73733 C109.627197,120.73733 111.333864,120.915997 112.904531,121.26933 C117.93253,122.398663 123.207197,126.598663 128.795197,131.04133 C133.24853,134.579996 139.575197,139.071996 144.419196,140.390663 C145.769863,140.759996 147.429863,140.986663 148.76853,140.986663 C149.167196,140.983996 149.541863,140.971996 149.895196,140.922663 C153.093863,140.515996 156.188529,139.426663 161.712529,135.28133 C171.556529,127.883997 215.137861,89.7639976 215.561861,89.3866643 C215.595195,89.3613309 218.369861,86.9639977 218.176528,82.9799978 C218.073861,80.7599978 216.839195,78.7853312 214.696528,77.4146646 C212.836528,76.2386646 210.916528,75.635998 208.975195,75.635998 C206.061862,75.6426646 204.057862,77.0079979 203.928528,77.0999979 C203.768528,77.2306646 188.837862,90.9213309 183.345862,95.5186641 C182.468529,96.2439974 181.620529,96.8959974 180.757862,96.8959974 C180.299195,96.8999974 179.892529,96.7039974 179.617862,96.3586641 C178.753862,95.2946641 179.721862,93.8199975 180.861862,92.8506642 L198.305862,75.319998 C198.327195,75.2986646 200.475195,73.2826647 200.712528,70.5946647 C200.848528,67.6879981 199.461862,65.2599982 196.572528,63.3626649 C194.513862,62.010665 192.428529,61.3213316 190.389862,61.3213316 C187.712529,61.3213316 185.832529,62.5426649 185.417862,62.8306649 L182.913862,65.2959982 C178.341862,69.7959981 173.620529,74.4466646 170.165862,77.3319979 C169.323196,78.0319979 168.421862,78.6773312 167.563196,78.6773312 C167.143196,78.6773312 166.759196,78.5199979 166.465863,78.2119979 C166.069863,77.7733312 165.797863,76.9853313 166.779196,75.679998 C167.181862,75.1426646 167.657862,74.6973313 167.657862,74.6973313 L180.388529,60.406665 C180.493862,60.278665 183.011195,57.2879984 180.672529,54.3039985 L180.225862,53.7359985 C179.844529,53.3119985 179.432529,52.9253319 179.041862,52.5973319 C176.872529,50.8133319 173.971196,50.6213319 172.824529,50.6213319 C172.207196,50.6213319 171.615196,50.6759986 171.099196,50.7666652 C169.845862,50.9933319 169.001862,51.3439986 168.595196,51.8279985 L168.439196,51.9839985 C167.744529,52.7066652 161.328529,59.2533317 156.020529,63.6839983 C155.320529,64.2706649 154.449863,65.0119982 153.545863,65.0119982 C153.101863,65.0119982 152.701863,64.8373316 152.397863,64.4973316 C151.345863,63.3453316 152.925863,61.6279983 153.593863,60.9959983 L164.449863,49.0266653 C164.436529,48.917332 164.297863,48.669332 164.035196,48.2906653 C163.645863,47.757332 162.329863,46.441332 158.391196,45.941332 C157.921863,45.8839987 157.433863,45.857332 156.953863,45.857332 C152.89253,45.857332 148.563196,47.8279986 146.329863,49.013332 C147.34453,51.1599986 147.871196,53.5199985 147.871196,55.8946651 C147.877863,64.8293316 140.621863,72.0933314 131.687197,72.1013314 C131.497863,72.1013314 131.295197,72.0933314 131.101863,72.0866647 C131.395197,76.1666646 130.819197,83.8893311 122.891197,87.2919977 C120.611197,88.2799976 118.333864,88.781331 116.121864,88.781331 C114.391197,88.781331 112.727197,88.485331 111.156531,87.8839976 C109.516531,91.0746642 106.788531,93.3999975 103.229864,94.6146641 C101.265864,95.2946641 99.3098642,95.6373308 97.4205309,95.6373308 C94.1218643,95.6373308 91.0818644,94.6693308 88.3698645,92.7399975 C85.7738645,95.9666641 81.8485313,97.8826641 77.7165314,97.8826641 C74.1031981,97.8826641 70.6245316,96.4346641 68.0485316,93.8839975 C64.6711984,96.4626641 51.2671987,104.977331 15.3965329,113.12133 C13.6591997,113.514664 9.67253309,114.658664 7.22853315,115.37333 C6.82319983,113.431997 6.51519984,111.467997 6.31119984,109.486664 C6.31119984,109.486664 12.928533,107.902664 14.2298663,107.611997 C50.8738654,99.4719974 62.9818651,91.0079976 65.029865,89.4093309 C64.3378651,87.745331 63.9765317,85.9479977 63.9725317,84.1359977 C63.9685317,76.5706646 70.1245316,70.4026647 77.7005314,70.3946647 C78.551198,70.3946647 79.3925313,70.4666647 80.2218647,70.6213314 C81.3618646,65.0519982 85.0058645,60.8279983 90.5791977,58.662665 C92.204531,58.0346651 93.8538643,57.7146651 95.4698643,57.7146651 C96.5138643,57.7106651 97.5685309,57.8426651 98.5965309,58.1039984 C99.6245308,55.4893318 101.943197,52.2333319 107.117864,50.1319986 C108.929864,49.3999986 110.745864,49.017332 112.511197,49.017332 C113.951197,49.017332 115.361864,49.2679986 116.70453,49.7679986 C119.185864,43.7253321 125.085864,39.7199988 131.66853,39.7199988 C136.02853,39.7159988 140.21653,41.4919988 143.271196,44.6359987 C145.883196,43.1813321 151.405863,40.5559988 156.977863,40.5439988 C157.700529,40.5439988 158.379196,40.5946655 159.053863,40.6799988 C164.591196,41.3799988 167.169862,43.5413321 168.352529,45.2266654 C168.564529,45.5186654 168.757862,45.8319987 168.921862,46.153332 C170.231196,45.781332 171.668529,45.4746654 173.313862,45.4706654 C176.337862,45.4706654 179.239196,46.4999987 182.175195,48.6359986 C185.056529,50.7199986 187.105862,53.6986652 187.399195,56.2399984 C187.404529,56.2733318 187.413862,56.3133318 187.417862,56.3506651 C188.385862,56.1493318 189.383195,56.0439984 190.380529,56.0439984 C193.492528,56.0439984 196.552528,57.0173318 199.479195,58.9319984 C205.124528,62.6333316 206.105862,67.4693315 206.012528,70.6306647 C207.001861,70.4239981 208.011195,70.3173314 209.012528,70.3173314 C211.937861,70.3173314 214.807195,71.1999981 217.543195,72.943998 C221.040528,75.179998 223.145861,78.6039979 223.463194,82.5906644 C223.685861,85.2999977 223.012528,88.0319976 221.585861,90.3799976 C231.041861,94.4546641 252.659194,102.341331 278.112526,108.075997 C277.959193,110.04933 277.675193,111.998664 277.323193,113.938664 C246.523194,107.103997 223.541861,97.1586641 217.783195,94.5959975" id="path42-copy" fill="#002F6E" fill-rule="nonzero"></path>
        </g>
    </g>
</svg>